Normalized EMG Linear Envelopes
nRows=43
nColumns=17

endheader
time	        VM	        VL	        RF	       GRA	        TA	   ADDLONG	   SEMIMEM	      BFLH	        GM	        GL	       TFL	   GLUTMAX	   GLUTMED	      PIRI	    OBTINT	        QF	
2.045	  0.329257	  0.202424	  0.101369	  0.141765	  0.054195	  0.098123	  0.169272	  0.052853	  0.362438	  0.354950	  0.235285	  0.120777	  0.116704	  0.294496	  1.580231	  0.187664	
2.0455	  0.325839	  0.200920	  0.102686	  0.143117	  0.054041	  0.099630	  0.167336	  0.052231	  0.361364	  0.356647	  0.236191	  0.118742	  0.117270	  0.295522	  1.593460	  0.187732	
2.046	  0.322404	  0.199413	  0.104015	  0.144496	  0.053903	  0.101149	  0.165445	  0.051628	  0.360286	  0.358335	  0.237070	  0.116718	  0.117849	  0.296579	  1.606589	  0.187833	
2.0465	  0.318953	  0.197906	  0.105356	  0.145900	  0.053780	  0.102681	  0.163599	  0.051043	  0.359204	  0.360012	  0.237921	  0.114706	  0.118443	  0.297665	  1.619606	  0.187965	
2.047	  0.315488	  0.196397	  0.106708	  0.147331	  0.053675	  0.104223	  0.161795	  0.050476	  0.358120	  0.361678	  0.238745	  0.112707	  0.119050	  0.298780	  1.632501	  0.188128	
2.0475	  0.312009	  0.194888	  0.108072	  0.148788	  0.053586	  0.105778	  0.160035	  0.049927	  0.357034	  0.363333	  0.239541	  0.110720	  0.119670	  0.299923	  1.645261	  0.188321	
2.048	  0.308518	  0.193378	  0.109448	  0.150270	  0.053515	  0.107343	  0.158317	  0.049397	  0.355946	  0.364976	  0.240309	  0.108746	  0.120304	  0.301093	  1.657877	  0.188542	
2.0485	  0.305017	  0.191868	  0.110834	  0.151776	  0.053461	  0.108918	  0.156641	  0.048885	  0.354858	  0.366607	  0.241051	  0.106787	  0.120952	  0.302288	  1.670336	  0.188790	
2.049	  0.301506	  0.190357	  0.112230	  0.153308	  0.053426	  0.110503	  0.155006	  0.048391	  0.353769	  0.368224	  0.241764	  0.104841	  0.121613	  0.303509	  1.682630	  0.189065	
2.0495	  0.297986	  0.188847	  0.113637	  0.154863	  0.053409	  0.112098	  0.153412	  0.047915	  0.352681	  0.369827	  0.242451	  0.102911	  0.122288	  0.304754	  1.694748	  0.189364	
2.05	  0.294461	  0.187337	  0.115054	  0.156443	  0.053411	  0.113702	  0.151859	  0.047456	  0.351594	  0.371416	  0.243110	  0.100996	  0.122975	  0.306023	  1.706682	  0.189687	
2.0505	  0.290930	  0.185827	  0.116481	  0.158046	  0.053433	  0.115314	  0.150346	  0.047016	  0.350508	  0.372990	  0.243741	  0.099097	  0.123676	  0.307314	  1.718424	  0.190032	
2.051	  0.287396	  0.184317	  0.117917	  0.159672	  0.053474	  0.116934	  0.148874	  0.046593	  0.349423	  0.374547	  0.244346	  0.097214	  0.124390	  0.308628	  1.729967	  0.190397	
2.0515	  0.283860	  0.182808	  0.119361	  0.161321	  0.053536	  0.118562	  0.147441	  0.046188	  0.348339	  0.376089	  0.244923	  0.095348	  0.125117	  0.309962	  1.741306	  0.190782	
2.052	  0.280324	  0.181300	  0.120814	  0.162993	  0.053619	  0.120196	  0.146049	  0.045801	  0.347258	  0.377615	  0.245472	  0.093499	  0.125856	  0.311317	  1.752435	  0.191186	
2.0525	  0.276789	  0.179791	  0.122274	  0.164686	  0.053722	  0.121837	  0.144696	  0.045432	  0.346179	  0.379123	  0.245993	  0.091668	  0.126607	  0.312692	  1.763349	  0.191606	
2.053	  0.273257	  0.178284	  0.123742	  0.166401	  0.053847	  0.123483	  0.143383	  0.045080	  0.345102	  0.380614	  0.246486	  0.089854	  0.127371	  0.314085	  1.774045	  0.192041	
2.0535	  0.269729	  0.176777	  0.125216	  0.168136	  0.053994	  0.125134	  0.142110	  0.044747	  0.344027	  0.382088	  0.246951	  0.088059	  0.128147	  0.315496	  1.784517	  0.192490	
2.054	  0.266207	  0.175271	  0.126697	  0.169893	  0.054162	  0.126789	  0.140877	  0.044430	  0.342956	  0.383544	  0.247386	  0.086283	  0.128934	  0.316924	  1.794763	  0.192951	
2.0545	  0.262691	  0.173765	  0.128183	  0.171670	  0.054354	  0.128448	  0.139683	  0.044132	  0.341887	  0.384983	  0.247792	  0.084526	  0.129733	  0.318368	  1.804779	  0.193424	
2.055	  0.259184	  0.172259	  0.129674	  0.173467	  0.054568	  0.130109	  0.138530	  0.043851	  0.340821	  0.386404	  0.248167	  0.082788	  0.130543	  0.319826	  1.814565	  0.193906	
2.0555	  0.255687	  0.170754	  0.131169	  0.175284	  0.054805	  0.131773	  0.137416	  0.043588	  0.339759	  0.387807	  0.248512	  0.081069	  0.131363	  0.321298	  1.824117	  0.194397	
2.056	  0.252200	  0.169250	  0.132668	  0.177119	  0.055066	  0.133438	  0.136341	  0.043342	  0.338700	  0.389191	  0.248825	  0.079370	  0.132194	  0.322783	  1.833437	  0.194894	
2.0565	  0.248725	  0.167746	  0.134169	  0.178973	  0.055351	  0.135103	  0.135307	  0.043115	  0.337644	  0.390557	  0.249106	  0.077692	  0.133035	  0.324280	  1.842521	  0.195396	
2.057	  0.245263	  0.166243	  0.135674	  0.180846	  0.055659	  0.136768	  0.134312	  0.042905	  0.336591	  0.391905	  0.249355	  0.076033	  0.133886	  0.325788	  1.851369	  0.195901	
2.0575	  0.241815	  0.164742	  0.137179	  0.182736	  0.055993	  0.138432	  0.133356	  0.042713	  0.335541	  0.393235	  0.249569	  0.074396	  0.134746	  0.327306	  1.859980	  0.196408	
2.058	  0.238382	  0.163242	  0.138686	  0.184642	  0.056351	  0.140094	  0.132440	  0.042539	  0.334493	  0.394547	  0.249750	  0.072779	  0.135614	  0.328834	  1.868352	  0.196916	
2.0585	  0.234966	  0.161744	  0.140192	  0.186566	  0.056734	  0.141753	  0.131564	  0.042383	  0.333448	  0.395842	  0.249895	  0.071183	  0.136491	  0.330371	  1.876484	  0.197422	
2.059	  0.231567	  0.160248	  0.141698	  0.188505	  0.057142	  0.143409	  0.130727	  0.042244	  0.332405	  0.397121	  0.250006	  0.069608	  0.137376	  0.331916	  1.884374	  0.197925	
2.0595	  0.228186	  0.158755	  0.143202	  0.190460	  0.057577	  0.145061	  0.129929	  0.042124	  0.331364	  0.398383	  0.250082	  0.068055	  0.138267	  0.333470	  1.892018	  0.198424	
2.06	  0.224825	  0.157263	  0.144704	  0.192429	  0.058037	  0.146708	  0.129170	  0.042022	  0.330326	  0.399630	  0.250122	  0.066523	  0.139166	  0.335031	  1.899415	  0.198917	
2.0605	  0.221485	  0.155774	  0.146202	  0.194413	  0.058523	  0.148348	  0.128450	  0.041937	  0.329290	  0.400861	  0.250129	  0.065013	  0.140070	  0.336600	  1.906559	  0.199403	
2.061	  0.218166	  0.154288	  0.147696	  0.196410	  0.059036	  0.149983	  0.127769	  0.041870	  0.328257	  0.402078	  0.250103	  0.063525	  0.140981	  0.338176	  1.913448	  0.199881	
2.0615	  0.214870	  0.152805	  0.149185	  0.198419	  0.059576	  0.151609	  0.127126	  0.041822	  0.327228	  0.403281	  0.250043	  0.062058	  0.141896	  0.339758	  1.920077	  0.200350	
2.062	  0.211598	  0.151325	  0.150668	  0.200440	  0.060144	  0.153226	  0.126521	  0.041791	  0.326202	  0.404468	  0.249952	  0.060614	  0.142816	  0.341346	  1.926440	  0.200807	
2.0625	  0.208350	  0.149848	  0.152144	  0.202473	  0.060739	  0.154835	  0.125953	  0.041777	  0.325181	  0.405641	  0.249829	  0.059192	  0.143740	  0.342939	  1.932532	  0.201253	
2.063	  0.205129	  0.148376	  0.153612	  0.204515	  0.061362	  0.156432	  0.125423	  0.041782	  0.324164	  0.406799	  0.249675	  0.057791	  0.144667	  0.344537	  1.938347	  0.201686	
2.0635	  0.201933	  0.146907	  0.155072	  0.206568	  0.062013	  0.158018	  0.124930	  0.041803	  0.323151	  0.407942	  0.249491	  0.056413	  0.145596	  0.346139	  1.943878	  0.202105	
2.064	  0.198766	  0.145443	  0.156522	  0.208629	  0.062694	  0.159593	  0.124474	  0.041843	  0.322144	  0.409071	  0.249278	  0.055058	  0.146528	  0.347744	  1.949120	  0.202509	
2.0645	  0.195626	  0.143983	  0.157962	  0.210699	  0.063403	  0.161154	  0.124053	  0.041900	  0.321140	  0.410183	  0.249035	  0.053724	  0.147460	  0.349350	  1.954063	  0.202897	
2.065	  0.192516	  0.142529	  0.159389	  0.212776	  0.064142	  0.162702	  0.123669	  0.041974	  0.320142	  0.411280	  0.248763	  0.052413	  0.148393	  0.350958	  1.958700	  0.203270	
2.0655	  0.189435	  0.141081	  0.160804	  0.214860	  0.064911	  0.164235	  0.123320	  0.042065	  0.319148	  0.412362	  0.248463	  0.051123	  0.149325	  0.352565	  1.963023	  0.203626	
2.066	  0.186385	  0.139639	  0.162205	  0.216949	  0.065711	  0.165754	  0.123007	  0.042174	  0.318158	  0.413426	  0.248135	  0.049857	  0.150256	  0.354171	  1.967023	  0.203965	
